<?xml version="1.0" encoding="UTF-8" standalone="no"?>
<!-- Generator: Adobe Illustrator 25.1.0, SVG Export Plug-In . SVG Version: 6.00 Build 0)  -->

<svg
  version="1.1"
  id="Calque_1"
  x="0px"
  y="0px"
  viewBox="0 0 122.9 108.5"
  xml:space="preserve"
  sodipodi:docname="LogoCerema.svg"
  inkscape:version="1.2.1 (9c6d41e, 2022-07-14)"
  width="122.9"
  height="108.5"
  xmlns:inkscape="http://www.inkscape.org/namespaces/inkscape"
  xmlns:sodipodi="http://sodipodi.sourceforge.net/DTD/sodipodi-0.dtd"
  xmlns="http://www.w3.org/2000/svg"
><defs
   id="defs272" />
  <sodipodi:namedview
    id="namedview270"
    pagecolor="#ffffff"
    bordercolor="#000000"
    borderopacity="0.25"
    inkscape:showpageshadow="2"
    inkscape:pageopacity="0.0"
    inkscape:pagecheckerboard="0"
    inkscape:deskcolor="#d1d1d1"
    showgrid="false"
    inkscape:zoom="2.1771217"
    inkscape:cx="197.04916"
    inkscape:cy="51.903392"
    inkscape:window-width="1818"
    inkscape:window-height="830"
    inkscape:window-x="0"
    inkscape:window-y="25"
    inkscape:window-maximized="0"
    inkscape:current-layer="Calque_1"/>
  <style
    type="text/css"
    id="style161">
	.st0 {
    fill: #2A3D4D;
  }

  .st1 {
    fill: #FBBF0D;
  }

  .st2 {
    fill: #EA6409;
  }

  .st3 {
    fill: #F49D54;
  }

  .st4 {
    fill: #64C6F1;
  }

  .st5 {
    fill: #7E97CE;
  }

  .st6 {
    fill: #73B0A5;
  }

  .st7 {
    fill: #60B467;
  }

  .st8 {
    fill: #C6CD2C;
  }

  .st9 {
    fill: #B0CC4E;
  }

  .st10 {
    fill: #FDEB7D;
  }

  .st11 {
    fill: #EF7757;
  }

  .st12 {
    fill: #5A71B4;
  }

  .st13 {
    fill: #448D60;
  }

  .st14 {
    fill: #96AB5B;
  }

  .st15 {
    fill: #F7D05C;
  }

  .st16 {
    fill: #405678;
  }
</style>
  <path
    class="st0"
    d="M 33.8,101.5"
    id="path163"/>
  <path
    class="st1"
    d="M 58,23.5 C 64.2,16.5 66.2,5.7 66.5,0 H 51 c 0,0 0,0.1 0,0.1 h 1.4 c 0,7 2.1,15.4 5.6,23.4"
    id="path165"/>
  <path
    class="st2"
    d="m 110.9,15.8 v 0 l 0.4,1.4 c -9.3,3.3 -16.2,7.6 -21.4,12.6 3.9,1.7 8.1,2.6 12.3,2.6 4.2,0 8.3,0.2 13.6,-1.9 z"
    id="path167"/>
  <path
    class="st3"
    d="M 87.5,14.9 C 80.7,10.8 77.3,2.1 77,0.1 c -0.5,0 -8.2,0 -8.2,0 0,5.7 5.4,19.6 16.2,27 0.7,0.5 1.4,0.9 2.2,1.3 4.8,-4.8 10.4,-8.6 16.6,-11.3 -6.1,0.5 -13.2,-0.4 -16.3,-2.2"
    id="path169"/>
  <path
    class="st3"
    d="m 115.8,30.5 -4.9,-14.8 c -22.5,8 -31.1,21 -36.5,39.4 5.7,0.3 11.2,1.3 16.7,2.9 3.2,-14.4 7.5,-21.4 24.7,-27.5"
    id="path171"/>
  <path
    class="st4"
    d="m 97.1,63.2 c 1,7.6 4.8,16.9 14.4,27.6 l 10.2,-9.2 c -6.6,-8 -15.1,-14.3 -24.6,-18.4"
    id="path173"/>
  <path
    class="st5"
    d="m 110.6,48.8 c 1.2,-3.9 4.3,-6.8 8.2,-7.9 l -2.4,-8.2 c -8.9,2.6 -15.9,9.6 -18.5,18.5 -0.8,2.9 -1.1,5.8 -1,8.8 7.6,3.1 14.6,7.5 20.6,13.1 -5.3,-8.8 -8.3,-19.3 -6.9,-24.3"
    id="path175"/>
  <path
    class="st5"
    d="M 111.5,90.8 122.9,80.6 C 106.8,61.8 86.7,55.9 67.3,56.3 c 1.6,5.4 2.9,10.9 3.8,16.4 11,-0.9 27,2.5 40.4,18.1"
    id="path177"/>
  <path
    class="st6"
    d="m 69.4,81 c -12.2,5.8 -13.1,17.8 -14,24.9 l 13,2.3 c 1.7,-7.9 2,-17.3 1,-27.2"
    id="path179"/>
  <path
    class="st7"
    d="m 72.5,99.5 c 1.6,-3.2 3.8,-5.9 6.9,-7.2 8.4,-3.5 18,-1.1 23.7,6 l 5.8,-5.2 C 100.9,83 86.8,75.3 73.4,79.4 c -0.5,0.1 -0.9,0.3 -1.3,0.5 0.7,6.5 0.9,13.1 0.4,19.6"
    id="path181"/>
  <path
    class="st7"
    d="m 63.7,49.9 c -5,2.3 -10.4,3.7 -15.9,3.8 7.1,12.5 10.6,28.8 7.6,52.2 l 14.4,2.6 C 73.6,90.8 70.3,68.1 63.7,49.9"
    id="path183"/>
  <path
    class="st8"
    d="M 7.2,26.7 0.7,39.1 C 14.8,46.5 27.2,50.4 38.5,51 33.1,42.8 24,34.3 7.2,26.7"
    id="path185"/>
  <path
    class="st9"
    d="m 35.7,69.2 c 4.8,12.7 -4.3,26.6 -7.2,31.9 l 7.3,1.5 c 5.1,-9.6 14.3,-24.5 8.1,-41 -1,-2.7 -2.2,-5.3 -3.6,-7.8 -8.5,-0.3 -16.9,-2 -24.9,-5.1 9.1,6 17.4,13 20.3,20.5"
    id="path187"/>
  <path
    class="st9"
    d="M 59,31.8 C 46.7,40.1 29.7,38.4 7.2,26.6 L 0,40.3 c 15.4,8.1 29.1,12.1 41.3,12.1 10.2,0 19.6,-1 27.5,-7.7 C 65,40.9 61.7,36.5 59,31.8"
    id="path189"/>
  <path
    class="st10"
    d="M 41.6,20.3 C 32.3,25 17.6,19.7 12.5,16.7 l -4.1,7.6 c 6,3.5 16.6,6.7 27.9,6.7 4.5,0 8.9,-0.6 13.2,-1.8 2.3,-0.7 4.5,-1.9 6.3,-3.5 -2.7,-5.7 -4.6,-11.8 -5.6,-18 -1.5,5.8 -4.8,10.7 -8.6,12.6"
    id="path191"/>
  <path
    class="st10"
    d="M 66.4,0 H 51 c 0.1,16 10.5,39.4 24.3,47.8 1.8,-5 4.3,-9.8 7.4,-14.2 C 73,24.9 66.5,10.9 66.4,0"
    id="path193"/>
  <path
    class="st11"
    d="m 110.8,15.9 v 0 l 0.4,1.4 c -9.3,3.3 -16.2,7.5 -21.4,12.6 3.9,1.7 8.1,2.6 12.3,2.6 4.2,0 8.3,0.2 13.6,-1.8 z"
    id="path195"/>
  <path
    class="st12"
    d="m 97.2,63.1 c 1,7.6 4.8,16.9 14.4,27.6 l 10.2,-9.2 c -6.7,-8 -15.1,-14.3 -24.6,-18.4"
    id="path197"/>
  <path
    class="st13"
    d="m 69.5,81 c -12.2,5.8 -13.1,17.8 -14,24.9 l 13,2.3 c 1.7,-7.9 2,-17.3 1,-27.2"
    id="path199"/>
  <path
    class="st14"
    d="M 7.2,26.8 0.7,39.2 C 14.8,46.6 27.3,50.5 38.6,51.1 33.1,42.9 24.1,34.4 7.2,26.8"
    id="path201"/>
  <path
    class="st15"
    d="M 57.8,23.5 C 64,16.5 66.1,5.7 66.3,0 H 50.9 v 0.1 h 1.4 c 0,7 2.1,15.4 5.5,23.4"
    id="path203"/>
































</svg>
