<svg width="100" height="100" id="eR2vnagM6G11" xmlns="http://www.w3.org/2000/svg" viewBox="0 0 122.9 108.5"
     shape-rendering="geometricPrecision" text-rendering="geometricPrecision">
<style><![CDATA[
#eR2vnagM6G15 {animation: eR2vnagM6G15_c_o 1000ms linear infinite normal forwards}@keyframes eR2vnagM6G15_c_o { 0% {opacity: 0} 53.333333% {opacity: 0} 60% {opacity: 1} 80% {opacity: 1} 86.666667% {opacity: 0} 100% {opacity: 0}} #eR2vnagM6G16 {animation: eR2vnagM6G16_c_o 1000ms linear infinite normal forwards}@keyframes eR2vnagM6G16_c_o { 0% {opacity: 0} 66.666667% {opacity: 0} 73.333333% {opacity: 1} 93.333333% {opacity: 1} 100% {opacity: 0}} #eR2vnagM6G18 {animation: eR2vnagM6G18_c_o 1000ms linear infinite normal forwards}@keyframes eR2vnagM6G18_c_o { 0% {opacity: 1} 6.666667% {opacity: 0} 73.333333% {opacity: 0} 80% {opacity: 1} 100% {opacity: 1}} #eR2vnagM6G19 {animation: eR2vnagM6G19_c_o 1000ms linear infinite normal forwards}@keyframes eR2vnagM6G19_c_o { 0% {opacity: 1} 13.333333% {opacity: 1} 20% {opacity: 0} 86.666667% {opacity: 0} 93.333333% {opacity: 1} 100% {opacity: 1}} #eR2vnagM6G111 {animation: eR2vnagM6G111_c_o 1000ms linear infinite normal forwards}@keyframes eR2vnagM6G111_c_o { 0% {opacity: 1} 20% {opacity: 1} 26.666667% {opacity: 0} 93.333333% {opacity: 0} 100% {opacity: 1}} #eR2vnagM6G112 {animation: eR2vnagM6G112_c_o 1000ms linear infinite normal forwards}@keyframes eR2vnagM6G112_c_o { 0% {opacity: 0} 6.666667% {opacity: 0} 13.333333% {opacity: 1} 33.333333% {opacity: 1} 40% {opacity: 0} 100% {opacity: 0}} #eR2vnagM6G114 {animation: eR2vnagM6G114_c_o 1000ms linear infinite normal forwards}@keyframes eR2vnagM6G114_c_o { 0% {opacity: 0} 13.333333% {opacity: 0} 20% {opacity: 1} 40% {opacity: 1} 46.666667% {opacity: 0} 100% {opacity: 0}} #eR2vnagM6G115 {animation: eR2vnagM6G115_c_o 1000ms linear infinite normal forwards}@keyframes eR2vnagM6G115_c_o { 0% {opacity: 0} 26.666667% {opacity: 0} 33.333333% {opacity: 1} 53.333333% {opacity: 1} 60% {opacity: 0} 100% {opacity: 0}} #eR2vnagM6G116 {animation: eR2vnagM6G116_c_o 1000ms linear infinite normal forwards}@keyframes eR2vnagM6G116_c_o { 0% {opacity: 0} 33.333333% {opacity: 0} 40% {opacity: 1} 60% {opacity: 1} 66.666667% {opacity: 0} 100% {opacity: 0}} #eR2vnagM6G117 {animation: eR2vnagM6G117_c_o 1000ms linear infinite normal forwards}@keyframes eR2vnagM6G117_c_o { 0% {opacity: 0} 46.666667% {opacity: 0} 53.333333% {opacity: 1} 73.333333% {opacity: 1} 80% {opacity: 0} 100% {opacity: 0}} #eR2vnagM6G118 {animation: eR2vnagM6G118_c_o 1000ms linear infinite normal forwards}@keyframes eR2vnagM6G118_c_o { 0% {opacity: 0} 60% {opacity: 0} 66.666667% {opacity: 1} 86.666667% {opacity: 1} 93.333333% {opacity: 0} 100% {opacity: 0}} #eR2vnagM6G119 {animation: eR2vnagM6G119_c_o 1000ms linear infinite normal forwards}@keyframes eR2vnagM6G119_c_o { 0% {opacity: 1} 6.666667% {opacity: 1} 13.333333% {opacity: 0} 80% {opacity: 0} 86.666667% {opacity: 1} 100% {opacity: 1}} #eR2vnagM6G120 {animation: eR2vnagM6G120_c_o 1000ms linear infinite normal forwards}@keyframes eR2vnagM6G120_c_o { 0% {opacity: 0} 6.666667% {opacity: 1} 26.666667% {opacity: 1} 33.333333% {opacity: 0} 100% {opacity: 0}} #eR2vnagM6G121 {animation: eR2vnagM6G121_c_o 1000ms linear infinite normal forwards}@keyframes eR2vnagM6G121_c_o { 0% {opacity: 0} 20% {opacity: 0} 26.666667% {opacity: 1} 46.666667% {opacity: 1} 53.333333% {opacity: 0} 100% {opacity: 0}} #eR2vnagM6G122 {animation: eR2vnagM6G122_c_o 1000ms linear infinite normal forwards}@keyframes eR2vnagM6G122_c_o { 0% {opacity: 0} 40% {opacity: 0} 46.666667% {opacity: 1} 66.666667% {opacity: 1} 73.333333% {opacity: 0} 100% {opacity: 0}}
]]></style>
<path d="" opacity="0" fill="#2a3d4d"/><path d="M58,23.5c6.2-7,8.2-17.8,8.5-23.5L51,0c0,0,0,.1,0,.1h1.4c0,7,2.1,15.4,5.6,23.4" opacity="0" fill="#fbbf0d"/><path d="M110.9,15.8v0l.4,1.4c-9.3,3.3-16.2,7.6-21.4,12.6c3.9,1.7,8.1,2.6,12.3,2.6s8.3.2,13.6-1.9Z" opacity="0" fill="#ea6409"/><path id="eR2vnagM6G15" d="M87.5,14.9C80.7,10.8,77.3,2.1,77,0.1c-.5,0-8.2,0-8.2,0c0,5.7,5.4,19.6,16.2,27c.7.5,1.4.9,2.2,1.3c4.8-4.8,10.4-8.6,16.6-11.3-6.1.5-13.2-.4-16.3-2.2" opacity="0" fill="#f49d54"/><path id="eR2vnagM6G16" d="M115.8,30.5l-4.9-14.8c-22.5,8-31.1,21-36.5,39.4c5.7.3,11.2,1.3,16.7,2.9c3.2-14.4,7.5-21.4,24.7-27.5" opacity="0" fill="#f49d54"/><path d="M97.1,63.2c1,7.6,4.8,16.9,14.4,27.6l10.2-9.2c-6.6-8-15.1-14.3-24.6-18.4" opacity="0" fill="#64c6f1"/><path id="eR2vnagM6G18" d="M110.6,48.8c1.2-3.9,4.3-6.8,8.2-7.9l-2.4-8.2c-8.9,2.6-15.9,9.6-18.5,18.5-.8,2.9-1.1,5.8-1,8.8c7.6,3.1,14.6,7.5,20.6,13.1-5.3-8.8-8.3-19.3-6.9-24.3" fill="#7e97ce"/><path id="eR2vnagM6G19" d="M111.5,90.8l11.4-10.2C106.8,61.8,86.7,55.9,67.3,56.3c1.6,5.4,2.9,10.9,3.8,16.4c11-.9,27,2.5,40.4,18.1" fill="#7e97ce"/><path d="M69.4,81c-12.2,5.8-13.1,17.8-14,24.9l13,2.3c1.7-7.9,2-17.3,1-27.2" opacity="0" fill="#73b0a5"/><path id="eR2vnagM6G111" d="M72.5,99.5c1.6-3.2,3.8-5.9,6.9-7.2c8.4-3.5,18-1.1,23.7,6l5.8-5.2c-8-10.1-22.1-17.8-35.5-13.7-.5.1-.9.3-1.3.5.7,6.5.9,13.1.4,19.6" fill="#60b467"/><path id="eR2vnagM6G112" d="M63.7,49.9c-5,2.3-10.4,3.7-15.9,3.8c7.1,12.5,10.6,28.8,7.6,52.2l14.4,2.6c3.8-17.7.5-40.4-6.1-58.6" opacity="0" fill="#60b467"/><path d="M7.2,26.7L0.7,39.1C14.8,46.5,27.2,50.4,38.5,51C33.1,42.8,24,34.3,7.2,26.7" opacity="0" fill="#c6cd2c"/><path id="eR2vnagM6G114" d="M35.7,69.2c4.8,12.7-4.3,26.6-7.2,31.9l7.3,1.5c5.1-9.6,14.3-24.5,8.1-41-1-2.7-2.2-5.3-3.6-7.8-8.5-.3-16.9-2-24.9-5.1c9.1,6,17.4,13,20.3,20.5" opacity="0" fill="#b0cc4e"/><path id="eR2vnagM6G115" d="M59,31.8c-12.3,8.3-29.3,6.6-51.8-5.2L0,40.3c15.4,8.1,29.1,12.1,41.3,12.1c10.2,0,19.6-1,27.5-7.7-3.8-3.8-7.1-8.2-9.8-12.9" opacity="0" fill="#b0cc4e"/><path id="eR2vnagM6G116" d="M41.6,20.3c-9.3,4.7-24-.6-29.1-3.6L8.4,24.3C14.4,27.8,25,31,36.3,31c4.5,0,8.9-.6,13.2-1.8c2.3-.7,4.5-1.9,6.3-3.5-2.7-5.7-4.6-11.8-5.6-18-1.5,5.8-4.8,10.7-8.6,12.6" opacity="0" fill="#fdeb7d"/><path id="eR2vnagM6G117" d="M66.4,0L51,0c.1,16,10.5,39.4,24.3,47.8c1.8-5,4.3-9.8,7.4-14.2C73,24.9,66.5,10.9,66.4,0" opacity="0" fill="#fdeb7d"/><path id="eR2vnagM6G118" d="M110.8,15.9v0l.4,1.4c-9.3,3.3-16.2,7.5-21.4,12.6c3.9,1.7,8.1,2.6,12.3,2.6s8.3.2,13.6-1.8Z" opacity="0" fill="#ef7757"/><path id="eR2vnagM6G119" d="M97.2,63.1c1,7.6,4.8,16.9,14.4,27.6l10.2-9.2c-6.7-8-15.1-14.3-24.6-18.4" fill="#5a71b4"/><path id="eR2vnagM6G120" d="M69.5,81c-12.2,5.8-13.1,17.8-14,24.9l13,2.3c1.7-7.9,2-17.3,1-27.2" opacity="0" fill="#448d60"/><path id="eR2vnagM6G121" d="M7.2,26.8L0.7,39.2c14.1,7.4,26.6,11.3,37.9,11.9-5.5-8.2-14.5-16.7-31.4-24.3" opacity="0" fill="#96ab5b"/><path id="eR2vnagM6G122" d="M57.8,23.5C64,16.5,66.1,5.7,66.3,0h-15.4v.1h1.4c0,7,2.1,15.4,5.5,23.4" opacity="0" fill="#f7d05c"/></svg>
